<?xml version="1.0" encoding="UTF-8" standalone="no"?>
<!-- Created with Inkscape (http://www.inkscape.org/) -->

<svg
   xmlns:dc="http://purl.org/dc/elements/1.1/"
   xmlns:cc="http://creativecommons.org/ns#"
   xmlns:rdf="http://www.w3.org/1999/02/22-rdf-syntax-ns#"
   xmlns:svg="http://www.w3.org/2000/svg"
   xmlns="http://www.w3.org/2000/svg"
   xmlns:sodipodi="http://sodipodi.sourceforge.net/DTD/sodipodi-0.dtd"
   xmlns:inkscape="http://www.inkscape.org/namespaces/inkscape"
   id="svg2985"
   version="1.1"
   inkscape:version="0.48.2 r9819"
   width="50"
   height="70"
   sodipodi:docname="zglaz.svg">
  <metadata
     id="metadata2991">
    <rdf:RDF>
      <cc:Work
         rdf:about="">
        <dc:format>image/svg+xml</dc:format>
        <dc:type
           rdf:resource="http://purl.org/dc/dcmitype/StillImage" />
      </cc:Work>
    </rdf:RDF>
  </metadata>
  <defs
     id="defs2989" />
  <sodipodi:namedview
     pagecolor="#ffffff"
     bordercolor="#666666"
     borderopacity="1"
     objecttolerance="10"
     gridtolerance="10"
     guidetolerance="10"
     inkscape:pageopacity="0"
     inkscape:pageshadow="2"
     inkscape:window-width="1440"
     inkscape:window-height="814"
     id="namedview2987"
     showgrid="false"
     inkscape:zoom="9.6245257"
     inkscape:cx="28.185381"
     inkscape:cy="44.309977"
     inkscape:window-x="-4"
     inkscape:window-y="-4"
     inkscape:window-maximized="1"
     inkscape:current-layer="svg2985" />
  <path
     style="fill:#000000"
     d="m 1.9771839,69 0.313359,-3.25 0.313358,-3.25 9.7500001,-0.286212 9.75,-0.286212 0,-5.833736 0,-5.833735 -4.574695,-0.515635 c -1.210527,-0.02823 -6.323273,-0.771025 -6.827021,-1.549975 0,0 -2.0493562,-1.110816 -3.0054504,-1.436504 -2.1917108,-1.853594 -4.2249487,-4.15346 -5.0278797,-6.200663 l -1.564954,-6.045242 0.01101,-11.909969 c 0.0072,-7.756163 0.289932,-15.7896165 0.630842,-17.8521165 l 0.345819,-3.612991 C 12.426776,0.99227248 22.762297,1.0000005 33.098165,1.0000005 l 2.367897,6.159234 2.25565,5.1734785 4.995604,10.752471 -3.973268,-10.717786 -2.504019,-6.9744845 -1.386128,-4.392913 6.489076,0 6.489076,0 0.635924,4.639571 c 0.349758,2.551764 0.635924,10.4491105 0.635924,17.5496595 l 0,11.265978 -1.410724,5.029497 c -0.452538,1.613384 -1.983673,3.550667 -3.701963,4.849255 l -3.387313,2.559943 -3.717881,1.553048 -3.580873,1.14202 C 31.617068,49.588972 29.79198,50 28.103901,50 l 0,5.962474 0,5.962474 9.25,0.287526 9.25,0.287526 0.313358,3.25 0.313359,3.25 C 24.88465,68.862991 24.871189,68.862991 1.9771839,69 z"
     id="path3043"
     inkscape:connector-curvature="0"
     sodipodi:nodetypes="ccccccccscscssccccccccccsscssccccccccccc" />
</svg>
