<?xml version="1.0" encoding="UTF-8" standalone="no"?>
<!-- Created with Inkscape (http://www.inkscape.org/) -->

<svg
   xmlns:dc="http://purl.org/dc/elements/1.1/"
   xmlns:cc="http://creativecommons.org/ns#"
   xmlns:rdf="http://www.w3.org/1999/02/22-rdf-syntax-ns#"
   xmlns:svg="http://www.w3.org/2000/svg"
   xmlns="http://www.w3.org/2000/svg"
   xmlns:sodipodi="http://sodipodi.sourceforge.net/DTD/sodipodi-0.dtd"
   xmlns:inkscape="http://www.inkscape.org/namespaces/inkscape"
   id="svg3067"
   version="1.1"
   inkscape:version="0.48.2 r9819"
   width="60"
   height="70"
   sodipodi:docname="zumbrel.gif">
  <metadata
     id="metadata3073">
    <rdf:RDF>
      <cc:Work
         rdf:about="">
        <dc:format>image/svg+xml</dc:format>
        <dc:type
           rdf:resource="http://purl.org/dc/dcmitype/StillImage" />
        <dc:title></dc:title>
      </cc:Work>
    </rdf:RDF>
  </metadata>
  <defs
     id="defs3071" />
  <sodipodi:namedview
     pagecolor="#ffffff"
     bordercolor="#666666"
     borderopacity="1"
     objecttolerance="10"
     gridtolerance="10"
     guidetolerance="10"
     inkscape:pageopacity="0"
     inkscape:pageshadow="2"
     inkscape:window-width="1440"
     inkscape:window-height="814"
     id="namedview3069"
     showgrid="false"
     inkscape:zoom="8.2955266"
     inkscape:cx="30"
     inkscape:cy="35"
     inkscape:window-x="-4"
     inkscape:window-y="-4"
     inkscape:window-maximized="1"
     inkscape:current-layer="svg3067" />
  <path
     style="fill:#000000"
     d="m 19.137487,67.085455 c -0.598505,-0.598505 -1.329283,-2.211549 -1.329283,-4.026549 0,-2.64678 0.641883,-3.541094 2.265844,-3.541094 1.217774,0 0.821749,2.163144 1.371208,3.60833 1.203726,3.166038 2.150884,2.954436 4.110094,1.471278 1.29542,-0.980657 1.641805,-3.458642 1.77778,-12.717967 0.168715,-11.488826 0.166399,-11.50089 -2.384082,-12.415788 -1.892226,-0.678771 -3.21094,-0.484663 -5.095274,0.75 -3.147218,2.062137 -5.000293,2.108595 -6.61268,0.165788 -1.584289,-1.908951 -5.0577374,-1.923566 -7.5588704,-0.0318 -4.546501,3.4388 -5.71204198,0.94332 -2.500044,-5.352715 4.1185046,-7.766394 12.9748044,-14.472636 21.7548834,-14.907572 1.706186,-0.326641 2.62542,-0.62851 2.861641,-3.453108 0.529244,-6.3284 3.944679,-6.422568 3.980514,0.01301 0.0085,1.517753 1.419254,3.11776 2.109142,3.125296 7.985894,-1.371164 24.895879,11.651857 25.352734,19.75737 0,2.720431 -0.849285,2.930749 -3.55887,0.881322 -2.57079,-1.944447 -5.467059,-1.90237 -8.3564,0.121403 -2.207352,1.546089 -2.580723,1.534492 -5.762464,-0.178989 -2.557537,-1.377324 -4.64873,-2.677504 -6.350857,-1.50594 l -3.430861,1.531723 -0.184101,11.35091 c -0.115778,7.138399 -0.90022,12.270688 -1.722382,13.812813 -1.207014,2.263987 -1.778912,2.820761 -4.448687,3.148919 -3.431378,0.421771 -5.690481,-1.008136 -6.288985,-1.60664 z M 2.3260157,22.124246 c 2.0480505,-2.011932 2.6903754,-2.762605 5.5901524,-2.762605 1.611217,0 1.060126,2.315921 -0.022122,5.162449 -0.716116,1.883527 -2.2009346,2.993722 -4.0076546,2.993722 -2.213879,0 -3.517561,-3.470897 -1.5603758,-5.393566 z m 52.1650783,4.104435 c -2.249658,-0.928469 -1.455496,-5.984562 1.214817,-7.734218 1.355649,-0.888256 2.730305,-1.61501 3.054791,-1.61501 0.324486,0 0.452818,2.133452 0.285183,4.741006 -0.303003,4.713197 -1.461211,5.884991 -4.554791,4.608222 z M 10.187362,10.552961 c -1.2261976,-1.9840301 0.02511,-4.1801951 2.66173,-5.3815215 4.073171,-1.8558609 4.13577,-1.8645907 3.1995,2.5963726 -0.527656,2.5140749 0.08035,3.1859369 -2.740368,4.0741719 -1.663513,0.523835 -2.742467,-0.676767 -3.120862,-1.289023 z m 33.562191,2.166001 c 0.413649,-2.8041608 1.176353,-1.824357 3.438847,-2.8186317 3.672864,-1.6140754 1.904803,-1.4897803 1.904803,2.6945657 0,2.896441 -1.343452,3.295683 -2.657541,3.43289 -2.172841,0.226871 -3.023217,-1.023544 -2.686109,-3.308824 z M 29.853885,7.1934014 c -1.025857,-0.1193076 -2.257634,-1.156211 -2.077914,-2.4239841 0.265028,-1.8695458 1.122641,-2.4518 4.076764,-3.2181419 3.41202,-0.88512717 4.16691,-0.78757827 2.906171,1.0936494 -2.049297,3.0578864 -0.845099,5.0206475 -4.905021,4.5484766 z"
     id="path3077"
     inkscape:connector-curvature="0"
     sodipodi:nodetypes="ssssssssssccscccsssscsssssssssssssssssssssssssssss" />
</svg>
