<?xml version="1.0" encoding="UTF-8" standalone="no"?>
<!-- Created with Inkscape (http://www.inkscape.org/) -->

<svg
   xmlns:dc="http://purl.org/dc/elements/1.1/"
   xmlns:cc="http://creativecommons.org/ns#"
   xmlns:rdf="http://www.w3.org/1999/02/22-rdf-syntax-ns#"
   xmlns:svg="http://www.w3.org/2000/svg"
   xmlns="http://www.w3.org/2000/svg"
   xmlns:sodipodi="http://sodipodi.sourceforge.net/DTD/sodipodi-0.dtd"
   xmlns:inkscape="http://www.inkscape.org/namespaces/inkscape"
   id="svg3055"
   version="1.1"
   inkscape:version="0.48.2 r9819"
   width="50"
   height="70"
   sodipodi:docname="zup.gif">
  <metadata
     id="metadata3061">
    <rdf:RDF>
      <cc:Work
         rdf:about="">
        <dc:format>image/svg+xml</dc:format>
        <dc:type
           rdf:resource="http://purl.org/dc/dcmitype/StillImage" />
        <dc:title></dc:title>
      </cc:Work>
    </rdf:RDF>
  </metadata>
  <defs
     id="defs3059" />
  <sodipodi:namedview
     pagecolor="#ffffff"
     bordercolor="#666666"
     borderopacity="1"
     objecttolerance="10"
     gridtolerance="10"
     guidetolerance="10"
     inkscape:pageopacity="0"
     inkscape:pageshadow="2"
     inkscape:window-width="1440"
     inkscape:window-height="814"
     id="namedview3057"
     showgrid="false"
     inkscape:zoom="8.2955266"
     inkscape:cx="25"
     inkscape:cy="35"
     inkscape:window-x="-4"
     inkscape:window-y="-4"
     inkscape:window-maximized="1"
     inkscape:current-layer="svg3055" />
  <path
     style="fill:#000000"
     d="m 1,59 c 0,0 47.791644,0 48,0 L 49,69 1,69 z M 7.7115883,57.378255 7.7110488,18.397266 c -1.0675407,0 -4.8889266,0.123939 -5.2505966,-0.461256 C 1.4500156,16.30109 11.084217,1 13.124068,1 c 2.07477,0 11.250476,14.581572 10.464531,16.629709 -0.289206,0.75366 -4.202815,0.767557 -5.3082,0.767557 L 18.5,57.5 z m 25.3616397,0 c -0.0032,-4.756184 -0.211488,-39.34263 -0.211488,-39.34263 -1.117261,0 -5.162204,0.344951 -5.45272,-0.412119 C 26.615885,15.556628 35.933867,1 38.05005,1 40.088434,1 49.538634,16.319455 48.518486,17.970089 48.1684,18.53654 45.210037,18.517812 43.551639,18.397265 l -0.654373,38.861641 z"
     id="path3065"
     inkscape:connector-curvature="0"
     sodipodi:nodetypes="cccccccssscccccsssccc" />
</svg>
