<?xml version="1.0" encoding="UTF-8" standalone="no"?>
<svg
   xmlns:dc="http://purl.org/dc/elements/1.1/"
   xmlns:cc="http://creativecommons.org/ns#"
   xmlns:rdf="http://www.w3.org/1999/02/22-rdf-syntax-ns#"
   xmlns:svg="http://www.w3.org/2000/svg"
   xmlns="http://www.w3.org/2000/svg"
   xmlns:sodipodi="http://sodipodi.sourceforge.net/DTD/sodipodi-0.dtd"
   xmlns:inkscape="http://www.inkscape.org/namespaces/inkscape"
   width="60"
   height="70"
   version="1.1"
   id="svg2"
   inkscape:version="0.48.2 r9819"
   sodipodi:docname="zup2.svg">
  <metadata
     id="metadata440">
    <rdf:RDF>
      <cc:Work
         rdf:about="">
        <dc:format>image/svg+xml</dc:format>
        <dc:type
           rdf:resource="http://purl.org/dc/dcmitype/StillImage" />
        <dc:title></dc:title>
      </cc:Work>
    </rdf:RDF>
  </metadata>
  <defs
     id="defs438" />
  <sodipodi:namedview
     pagecolor="#ffffff"
     bordercolor="#666666"
     borderopacity="1"
     objecttolerance="10"
     gridtolerance="10"
     guidetolerance="10"
     inkscape:pageopacity="0"
     inkscape:pageshadow="2"
     inkscape:window-width="1440"
     inkscape:window-height="814"
     id="namedview436"
     showgrid="false"
     inkscape:zoom="6.7364982"
     inkscape:cx="30"
     inkscape:cy="35"
     inkscape:window-x="-4"
     inkscape:window-y="-4"
     inkscape:window-maximized="1"
     inkscape:current-layer="svg2" />
  <path
     d="  M 47,58  L 37,58  L 37,17  L 32,17  L 32,14  L 33,14  L 33,13  L 34,13  L 34,11  L 35,11  L 35,9  L 36,9  L 36,8  L 37,8  L 37,7  L 38,7  L 38,5  L 39,5  L 39,3  L 40,3  L 40,2  L 41,2  L 41,0  L 19,0  L 19,1  L 20,1  L 20,3  L 21,3  L 21,5  L 22,5  L 22,6  L 23,6  L 23,8  L 24,8  L 24,10  L 25,10  L 25,11  L 26,11  L 26,13  L 27,13  L 27,15  L 28,15  L 28,17  L 23,17  L 23,58  L 13,58  L 13,17  L 8,17  L 8,15  L 9,15  L 9,13  L 10,13  L 10,12  L 11,12  L 11,10  L 12,10  L 12,8  L 13,8  L 13,7  L 14,7  L 14,5  L 15,5  L 15,3  L 16,3  L 16,2  L 17,2  L 17,0  L 0,0  L 0,70  L 5,70  L 5,61  L 55,61  L 55,70  L 60,70  L 60,0  L 43,0  L 43,1  L 44,1  L 44,4  L 45,4  L 45,5  L 46,5  L 46,7  L 47,7  L 47,9  L 48,9  L 48,10  L 49,10  L 49,11  L 50,11  L 50,13  L 51,13  L 51,15  L 52,15  L 52,17  L 47,17  Z  "
     style="fill:rgb(128, 0, 0); fill-opacity:0.000;"
     id="path190" />
  <rect
     style="fill:#000000;fill-opacity:1;stroke:#000000;stroke-width:5.60659885;stroke-miterlimit:4;stroke-opacity:1;stroke-dasharray:none"
     id="rect3429"
     width="45.286491"
     height="3.3386889"
     x="8.0835257"
     y="63.840858" />
  <rect
     style="fill:#000000;fill-opacity:1;stroke:#000000;stroke-width:4.59533882;stroke-miterlimit:4;stroke-opacity:1;stroke-dasharray:none"
     id="rect3431"
     width="3.8819671"
     height="36.076439"
     x="17.664965"
     y="20.217924" />
  <path
     sodipodi:type="star"
     style="fill:#000000;fill-opacity:1;stroke:#000000;stroke-width:5;stroke-miterlimit:4;stroke-opacity:1;stroke-dasharray:none"
     id="path3433"
     sodipodi:sides="3"
     sodipodi:cx="7.5706992"
     sodipodi:cy="16.411327"
     sodipodi:r1="6.3067322"
     sodipodi:r2="3.1533661"
     sodipodi:arg1="-2.0344439"
     sodipodi:arg2="-0.98724635"
     inkscape:flatsided="false"
     inkscape:rounded="0"
     inkscape:randomized="0"
     d="m 4.750243,10.770415 4.5579291,3.009391 4.5579289,3.009391 -4.8851737,2.442587 -4.8851738,2.442586 0.3272448,-5.451977 z"
     inkscape:transform-center-x="1.949496"
     inkscape:transform-center-y="-2.005215"
     transform="matrix(0.99639505,0.46715693,-0.49434764,0.94159011,20.204623,-7.0277808)" />
  <rect
     y="20.069479"
     x="41.416176"
     height="36.076439"
     width="3.8819671"
     id="rect3437"
     style="fill:#000000;fill-opacity:1;stroke:#000000;stroke-width:4.59533882;stroke-miterlimit:4;stroke-opacity:1;stroke-dasharray:none" />
  <path
     transform="matrix(0.99639505,0.46715693,-0.49434764,0.94159011,43.955836,-7.1762259)"
     inkscape:transform-center-y="-2.005215"
     inkscape:transform-center-x="1.949496"
     d="m 4.750243,10.770415 4.5579291,3.009391 4.5579289,3.009391 -4.8851737,2.442587 -4.8851738,2.442586 0.3272448,-5.451977 z"
     inkscape:randomized="0"
     inkscape:rounded="0"
     inkscape:flatsided="false"
     sodipodi:arg2="-0.98724635"
     sodipodi:arg1="-2.0344439"
     sodipodi:r2="3.1533661"
     sodipodi:r1="6.3067322"
     sodipodi:cy="16.411327"
     sodipodi:cx="7.5706992"
     sodipodi:sides="3"
     id="path3439"
     style="fill:#000000;fill-opacity:1;stroke:#000000;stroke-width:5;stroke-miterlimit:4;stroke-opacity:1;stroke-dasharray:none"
     sodipodi:type="star" />
</svg>
